<svg width="701" height="701" viewBox="0 0 701 701" fill="none" xmlns="http://www.w3.org/2000/svg">
<g clip-path="url(#clip0_23226_1603)">
<path d="M580.978 409.236C528.589 439.483 501.776 426.204 270.55 519.525C395.89 436.645 569.868 341.975 663.4 316.666C649.553 352.383 621.876 385.624 580.978 409.236Z" fill="white"/>
<path d="M670.066 291.787C461.433 359.596 288.438 434.606 63.53 547.196C198.434 369.781 377.767 221.327 593.133 117.047C615.762 129.82 635.588 150.889 651.246 176.331C672.386 212.947 677.387 253.091 670.066 291.787Z" fill="white"/>
<path d="M103.956 409.989C190.859 305.285 309.317 182.363 419.105 118.977C481.572 82.9118 531.421 91.4545 568.732 106.266C421.222 178.963 237.664 293.585 103.956 409.989Z" fill="white"/>
</g>
<defs>
<clipPath id="clip0_23226_1603">
<rect width="701" height="701" fill="white"/>
</clipPath>
</defs>
</svg>
