<?xml version="1.0" encoding="UTF-8" ?>
<svg
  data-name="Camada 1"
  id="Camada_1"
  viewBox="0 0 1000 1000"
  xmlns="http://www.w3.org/2000/svg"
>
  <defs>
    <style>
    .cls-1 {
      fill: #176ca8;
      fill-rule: evenodd;
    }
    </style>
  </defs>
  <path
    class="cls-1"
    d="M615.61,800.23l-59.75-103.67c35.37-18.5,59.68-55.59,59.68-98.03,0-60.79-49.72-110.51-110.51-110.51h-26.05c.13-2.75.21-5.5.21-8.28s-.08-5.58-.21-8.35h30.66c58.25,0,105.9-47.66,105.9-105.9h0c0-.75-.01-1.49-.03-2.23.01-.74.03-1.48.03-2.22h0c0-40.35-21.95-75.82-54.5-95.06,12.02-11.28,19.56-27.29,19.56-44.98h0c0-33.96-27.78-61.75-61.74-61.75h-215.45v144.7h0c-97.08,0-175.78,78.7-175.78,175.78s78.7,175.78,175.78,175.78h0v144.63h146.48v-103.6h15.17v103.67h150.56ZM215.21,375.17c.42-4.99,2.26-9.97,5.28-14.48,3.16-4.7,7.61-8.87,13.08-11.98,18.12-10.3,39.1-15.81,60.63-16.8,22.19-1.02,44.96,2.76,65.8,11.06,22.99,9.15,41.84,22.6,56.45,39,11.76,13.19,20.8,28.32,27.07,44.66-1.06-1.19-2.15-2.37-3.24-3.53-5.05-5.32-10.47-10.29-16.31-14.65-11.17-8.34-22.29-13.38-34.03-15.85-11.67-2.46-23.91-2.33-37.39-.36-8.24,1.21-17.42,2.93-27.15,4.76-35.49,6.67-78.37,14.74-97.46,2.2-4.31-2.83-7.45-6.17-9.55-9.76-2.61-4.48-3.59-9.39-3.18-14.28ZM316.58,627.24c-22.03,1.81-45.05-1.39-68.04-10.55-20.83-8.29-39.91-21.16-55.19-37.1-14.83-15.46-26.09-33.81-31.93-53.65-1.77-6-2.06-12.05-1.04-17.6.97-5.32,3.13-10.17,6.33-14.05,3.13-3.81,7.28-6.67,12.3-8.12,4.03-1.16,8.63-1.41,13.73-.5,22.56,4.03,47.82,39.23,68.73,68.34,5.73,7.99,11.14,15.52,16.24,22.03,8.34,10.66,17.08,19.13,27.21,25.36,10.2,6.27,21.75,10.25,35.65,11.89,7.28.86,14.67.99,22.04.61,1.6-.09,3.21-.19,4.81-.32-15.98,7.48-33.09,12.19-50.82,13.66ZM443.02,535.08h0c-20.54,50.43-72.39,77.29-115.82,60-7.36-2.93-13.99-6.93-19.86-11.81-2.99-2.57-5.86-5.4-8.62-8.44-13.65-15.02-24.5-34.81-33.13-50.12-.48-.84-.95-1.68-1.42-2.53-18.05-32.08-35.82-63.66-63.36-72.16-10.14-3.13-20.84-1.12-30.36,6.13-5.55,4.23-10.68,10.24-15.03,18.07.65-16.49,4.12-33.15,10.71-49.34,6.59-16.19,15.77-30.59,26.86-42.92-2.34,8.62-2.85,16.47-1.81,23.3,1.78,11.75,8.08,20.52,17.59,25.21,25.83,12.74,60.76,2.14,96.27-8.62,33.49-10.16,67.49-20.47,93.13-10.72.95.36,1.9.75,2.85,1.14,4.19,1.76,8.26,3.79,12.16,6.07,34.98,21.74,48.46,71.08,29.86,116.76Z"
  />
  <g>
    <path
      class="cls-1"
      d="M642.31,159.26v640.98h178.06V159.26h-178.06ZM722.76,431.21v-47.48h16.25v47.48h16.02v-53.43h16.93v76.31h-81.23v-75.51h16.93v52.63h15.1ZM690.72,319.16l45.53-38.9v-.11h-45.53v-21.28h81.23v17.5l-52.4,44.85v.11h52.4v21.28h-81.23v-23.45ZM690.72,521.3c0-10.91,2.35-19.35,7.04-25.34,4.69-5.99,11.69-8.98,20.99-8.98s15.83,2.99,20.48,8.98c4.65,5.99,6.98,14.44,6.98,25.34v24.94h25.74v22.88h-81.23v-47.82ZM767.89,678.37c-3.62,7.21-8.6,12.72-14.93,16.53-6.33,3.82-13.5,5.72-21.51,5.72s-15.29-1.89-21.62-5.66c-6.33-3.78-11.33-9.29-14.99-16.53-3.66-7.24-5.49-16.02-5.49-26.31s1.81-19.16,5.43-26.37c3.62-7.21,8.6-12.7,14.93-16.47,6.33-3.78,13.58-5.66,21.74-5.66s15.18,1.89,21.51,5.66c6.33,3.78,11.31,9.27,14.93,16.47,3.62,7.21,5.43,16,5.43,26.37s-1.81,19.05-5.43,26.26Z"
    />
    <path
      class="cls-1"
      d="M732.83,626.72h-2.97c-7.24,0-12.91,2.29-16.99,6.86-4.08,4.58-6.12,10.75-6.12,18.53s2.04,13.96,6.12,18.53c4.08,4.58,9.74,6.86,16.99,6.86h2.97c7.25,0,12.91-2.29,16.99-6.86,4.08-4.58,6.12-10.75,6.12-18.53s-2.04-13.96-6.12-18.53c-4.08-4.58-9.74-6.86-16.99-6.86Z"
    />
    <path
      class="cls-1"
      d="M719.78,509.52h-1.37c-3.66,0-6.37,1.03-8.12,3.09-1.75,2.06-2.63,5.34-2.63,9.84v23.8h22.2v-23.8c0-4.5-.86-7.78-2.57-9.84-1.72-2.06-4.21-3.09-7.5-3.09Z"
    />
  </g>
</svg>
