<?xml version="1.0" encoding="UTF-8"?>
<svg id="Camada_1" data-name="Camada 1" xmlns="http://www.w3.org/2000/svg" viewBox="0 0 1000 1000">
  <defs>
    <style>
      .cls-1 {
        fill-rule: evenodd;
      }

      .cls-1, .cls-2 {
        fill: #176ca8;
      }
    </style>
  </defs>
  <path class="cls-1" d="M538.96,309.83c0,275.59,0-22.18,0,380.25h178.44v-126.21h18.48v126.3h183.41l-72.79-126.3c43.09-22.54,72.7-67.72,72.7-119.42,0-74.06-60.57-134.63-134.63-134.63h-245.62ZM562.6,333.48v332.96h131.16v-126.21h65.77v126.3h118.97l-64.64-112.15,21.75-11.37c18.07-9.45,33.3-23.79,43.93-41.26,10.16-16.69,16.02-36.3,16.02-57.29,0-30.5-12.49-58.24-32.61-78.37-20.12-20.12-47.87-32.61-78.37-32.61h-221.98Z"/>
  <path class="cls-1" d="M479.1,439.84c39.65,23.45,66.39,66.65,66.39,115.8,0,73.94-60.49,134.44-134.43,134.44h-245.82v-41.51c7.64,2.39,15.54,4.2,23.64,5.4v12.47h222.17c30.44,0,58.13-12.47,78.23-32.56,20.09-20.09,32.56-47.78,32.56-78.22,0-19.89-5.3-38.59-14.56-54.73-9.64-16.82-23.55-30.91-40.19-40.76l-27.06-16,22.9-21.5c5.17-4.86,9.35-10.72,12.19-17.26,2.67-6.14,4.15-13.02,4.15-20.36,0-14.16-5.81-27.05-15.17-36.41-9.36-9.36-22.25-15.17-36.41-15.17h-238.82v12.47c-8.1,1.19-16,3.01-23.64,5.4v-41.51h262.47c41.37,0,75.22,33.85,75.22,75.22,0,21.55-9.18,41.05-23.82,54.79"/>
  <path class="cls-1" d="M177.02,537.53c-15.99-28.41-31.72-56.38-56.12-63.91-8.98-2.77-18.46-.99-26.89,5.42-4.91,3.74-9.46,9.07-13.31,16.01.58-14.6,3.65-29.36,9.49-43.7,5.84-14.34,13.96-27.09,23.79-38.02-2.07,7.63-2.53,14.59-1.61,20.64,1.58,10.41,7.16,18.18,15.58,22.33,22.87,11.29,53.82,1.9,85.26-7.64,29.66-9,59.77-18.12,82.48-9.5.84.32,1.68.66,2.52,1.01,3.71,1.56,7.31,3.36,10.77,5.37,30.98,19.26,42.92,62.95,26.45,103.41h0c-18.19,44.66-64.12,68.45-102.58,53.14-6.52-2.59-12.39-6.14-17.59-10.46-2.65-2.28-5.19-4.79-7.63-7.48-12.09-13.3-21.7-30.83-29.34-44.39-.42-.75-.84-1.49-1.26-2.24M311.9,413.37c10.41,11.68,18.42,25.08,23.98,39.55-.94-1.06-1.9-2.1-2.87-3.12-4.47-4.71-9.27-9.12-14.45-12.98-9.89-7.39-19.74-11.85-30.14-14.04-10.34-2.18-21.18-2.07-33.11-.32-7.3,1.07-15.43,2.6-24.04,4.22-31.43,5.91-69.41,13.06-86.32,1.95-3.82-2.51-6.6-5.46-8.45-8.64-2.31-3.97-3.18-8.32-2.82-12.64.37-4.42,2-8.83,4.68-12.82,2.8-4.16,6.74-7.85,11.59-10.61,16.04-9.12,34.63-14,53.7-14.88,19.65-.9,39.82,2.45,58.28,9.79,20.37,8.11,37.05,20.02,50,34.55ZM268.45,618.5c-14.15,6.63-29.31,10.8-45.01,12.1-19.51,1.61-39.9-1.23-60.26-9.35-18.45-7.35-35.34-18.75-48.88-32.86-13.14-13.7-23.11-29.95-28.28-47.51-1.57-5.31-1.82-10.67-.92-15.59.86-4.71,2.77-9.01,5.61-12.44,2.78-3.37,6.45-5.91,10.89-7.19,3.57-1.03,7.64-1.25,12.16-.44,19.98,3.57,42.35,34.74,60.87,60.53,5.08,7.07,9.87,13.74,14.38,19.51,7.39,9.44,15.13,16.94,24.1,22.46,9.03,5.55,19.26,9.08,31.57,10.53,6.45.76,12.99.88,19.52.54,1.42-.08,2.84-.17,4.26-.29Z"/>
  <path class="cls-2" d="M653.32,602.28c0,6.11-1.07,11.3-3.22,15.58-2.15,4.28-5.1,7.54-8.86,9.81-3.76,2.26-8.01,3.39-12.76,3.39s-9.07-1.12-12.83-3.36c-3.76-2.24-6.72-5.5-8.89-9.81-2.17-4.3-3.26-9.5-3.26-15.61s1.08-11.37,3.23-15.65c2.15-4.28,5.1-7.54,8.86-9.78,3.76-2.24,8.06-3.36,12.9-3.36s9.01,1.12,12.76,3.36c3.76,2.24,6.71,5.5,8.86,9.78,2.15,4.28,3.22,9.49,3.22,15.65ZM643,602.28c0-4.62-1.21-8.28-3.63-11-2.42-2.71-5.78-4.07-10.08-4.07h-1.76c-4.3,0-7.66,1.36-10.08,4.07-2.42,2.71-3.63,6.38-3.63,11s1.21,8.28,3.63,11c2.42,2.71,5.78,4.07,10.08,4.07h1.76c4.3,0,7.66-1.36,10.08-4.07,2.42-2.71,3.63-6.38,3.63-11Z"/>
  <path class="cls-2" d="M652.51,553.03h-48.2v-28.37c0-6.47,1.39-11.49,4.18-15.04,2.78-3.55,6.93-5.32,12.46-5.32s9.39,1.78,12.15,5.32c2.76,3.55,4.14,8.57,4.14,15.04v14.8h15.27v13.58ZM614.36,525.33v14.12h13.17v-14.12c0-2.67-.51-4.61-1.53-5.84-1.02-1.22-2.5-1.83-4.45-1.83h-.81c-2.17,0-3.78.61-4.82,1.83-1.04,1.22-1.56,3.17-1.56,5.84Z"/>
  <path class="cls-2" d="M652.51,484.78h-48.2v-44.8h10.05v31.23h8.96v-28.17h9.64v28.17h9.5v-31.7h10.05v45.28Z"/>
  <path class="cls-2" d="M652.51,418.64h-48.2v-13.92l27.02-23.08v-.06h-27.02v-12.63h48.2v10.39l-31.09,26.61v.07h31.09v12.63Z"/>
</svg>