<?xml version="1.0" encoding="UTF-8"?>
<svg id="Camada_1" data-name="Camada 1" xmlns="http://www.w3.org/2000/svg" viewBox="0 0 1000 1000">
  <defs>
    <style>
      .cls-1 {
        fill: #176ca8;
        fill-rule: evenodd;
      }
    </style>
  </defs>
  <path class="cls-1" d="M500,208.31c-161.09,0-291.69,130.59-291.69,291.69s130.59,291.69,291.69,291.69,291.69-130.59,291.69-291.69-130.59-291.69-291.69-291.69ZM353.66,326.48c.69-8.28,3.75-16.55,8.77-24.02,5.24-7.79,12.63-14.71,21.71-19.88,30.06-17.09,64.88-26.24,100.6-27.87,36.82-1.69,74.6,4.58,109.18,18.35,38.16,15.19,69.42,37.5,93.67,64.72,19.51,21.89,34.51,46.99,44.92,74.1-1.77-1.98-3.56-3.93-5.38-5.85-8.37-8.82-17.37-17.08-27.07-24.32-18.53-13.85-36.99-22.21-56.47-26.3-19.37-4.08-39.67-3.87-62.04-.6-13.68,2-28.91,4.87-45.05,7.9-58.89,11.08-130.04,24.46-161.72,3.65-7.15-4.7-12.36-10.23-15.84-16.19-4.33-7.44-5.96-15.59-5.28-23.69ZM521.87,744.75c-36.55,3.01-74.75-2.31-112.91-17.51-34.57-13.76-66.22-35.12-91.58-61.56-24.61-25.66-43.3-56.11-52.99-89.02-2.93-9.95-3.41-19.99-1.72-29.21,1.62-8.82,5.2-16.88,10.51-23.31,5.2-6.31,12.08-11.08,20.4-13.47,6.69-1.93,14.32-2.34,22.78-.83,37.43,6.69,79.35,65.09,114.04,113.41,9.51,13.25,18.49,25.75,26.94,36.55,13.84,17.69,28.35,31.74,45.16,42.07,16.92,10.4,36.09,17.01,59.15,19.72,12.08,1.42,24.34,1.65,36.57,1.02,2.66-.14,5.32-.32,7.98-.53-26.51,12.41-54.91,20.23-84.32,22.66ZM731.68,591.83c-34.08,83.66-120.12,128.24-192.19,99.55-12.21-4.86-23.22-11.5-32.95-19.6-4.96-4.26-9.73-8.97-14.3-14.01-22.66-24.92-40.66-57.76-54.97-83.16-.79-1.4-1.57-2.8-2.36-4.19-29.95-53.23-59.44-105.63-105.14-119.74-16.83-5.2-34.58-1.86-50.38,10.16-9.2,7.01-17.72,17-24.94,29.99,1.08-27.36,6.84-55.01,17.78-81.87,10.94-26.86,26.17-50.76,44.57-71.22-3.88,14.3-4.73,27.33-3.01,38.66,2.96,19.5,13.41,34.05,29.19,41.84,42.85,21.14,100.83,3.55,159.74-14.31,55.57-16.86,111.99-33.96,154.53-17.79,1.58.6,3.16,1.24,4.72,1.9,6.95,2.91,13.71,6.29,20.18,10.07,58.05,36.08,80.41,117.94,49.55,193.74h0Z"/>
</svg>